<svg width="43" height="46" viewBox="0 0 43 46" fill="none" xmlns="http://www.w3.org/2000/svg">
<path fill-rule="evenodd" clip-rule="evenodd" d="M21.3621 38.9273L2.71852 45.8727C0.982578 46.5195 -0.605978 44.5779 0.22916 42.8302L20.1283 1.18761C20.8902 -0.406842 23.0301 -0.392778 23.7736 1.21157L42.7825 42.2324C43.5874 43.9692 42.0233 45.8777 40.3025 45.2585L22.6862 38.9197C22.2564 38.765 21.7904 38.7677 21.3621 38.9273ZM21.4391 30.6174L13.2012 33.9391C12.4342 34.2484 11.7322 33.3199 12.1013 32.484L20.8939 12.568C21.2306 11.8054 22.1761 11.8122 22.5046 12.5794L30.9039 32.1981C31.2595 33.0288 30.5684 33.9415 29.8081 33.6454L22.0242 30.6138C21.8342 30.5398 21.6283 30.5411 21.4391 30.6174Z" fill="#373231"/>
</svg>
