<svg width="25" height="21" viewBox="0 0 25 21" fill="none" xmlns="http://www.w3.org/2000/svg">
<path fill-rule="evenodd" clip-rule="evenodd" d="M12.549 17.5605C17.3984 17.5605 21.3295 14.2027 21.3295 10.0605C21.3295 5.91841 17.3984 2.56055 12.549 2.56055C7.69971 2.56055 3.76855 5.91841 3.76855 10.0605C3.76855 14.2027 7.69971 17.5605 12.549 17.5605ZM13.1173 10.8986L13.3112 6.72721H11.5768L11.7936 10.8986H13.1173ZM13.1515 12.0191C12.9613 11.8622 12.7293 11.7837 12.4554 11.7837C12.1892 11.7837 11.961 11.8622 11.7708 12.0191C11.5806 12.1761 11.4855 12.3644 11.4855 12.5841C11.4855 12.8038 11.5806 12.9953 11.7708 13.1585C11.961 13.3154 12.1892 13.3939 12.4554 13.3939C12.7293 13.3939 12.9613 13.3154 13.1515 13.1585C13.3417 12.9953 13.4368 12.8038 13.4368 12.5841C13.4368 12.3644 13.3417 12.1761 13.1515 12.0191Z" fill="#E52B02"/>
</svg>
