<svg width="32" height="32" viewBox="0 0 32 32" fill="none" xmlns="http://www.w3.org/2000/svg">
<g clip-path="url(#clip0_2389_1461)">
<path fill-rule="evenodd" clip-rule="evenodd" d="M6.60404 24.7668C6.33068 25.0401 6.33068 25.4834 6.60404 25.7567C6.87741 26.0301 7.32063 26.0301 7.59399 25.7567L15.9999 17.3508L24.4059 25.7567C24.6792 26.0301 25.1225 26.0301 25.3958 25.7567C25.6692 25.4834 25.6692 25.0401 25.3958 24.7668L16.9899 16.3608L25.3958 7.95489C25.6692 7.68152 25.6692 7.2383 25.3958 6.96494C25.1225 6.69157 24.6792 6.69157 24.4059 6.96494L15.9999 15.3709L7.59399 6.96494C7.32063 6.69158 6.87741 6.69157 6.60404 6.96494C6.33068 7.23831 6.33068 7.68152 6.60404 7.95489L15.01 16.3608L6.60404 24.7668Z" fill="white"/>
</g>
<defs>
<clipPath id="clip0_2389_1461">
<rect width="32" height="32" fill="white"/>
</clipPath>
</defs>
</svg>
