<svg width="24" height="24" viewBox="0 0 24 24" fill="none" xmlns="http://www.w3.org/2000/svg">
<path fill-rule="evenodd" clip-rule="evenodd" d="M12.1223 13.7118C11.9609 13.6979 11.8026 13.6338 11.6725 13.5186L11.6622 13.5093L7.75729 9.92785C7.43941 9.63631 7.41807 9.14228 7.70961 8.8244C8.00115 8.50653 8.49518 8.48518 8.81306 8.77673L11.4091 11.1577L11.4091 2.78098C11.4091 2.34966 11.7588 2 12.1901 2C12.6214 2 12.9711 2.34966 12.9711 2.78098L12.9711 11.1579L15.5672 8.77678C15.8851 8.48523 16.3791 8.50657 16.6706 8.82445C16.9622 9.14232 16.9408 9.63635 16.623 9.9279L12.7181 13.5093C12.5501 13.6634 12.3328 13.7301 12.1223 13.7118ZM4 17.7999C4 18.2312 4.34966 18.5808 4.78098 18.5808C4.84273 18.5808 4.90279 18.5737 4.9604 18.5601C5.01801 18.5737 5.07808 18.5808 5.13982 18.5808H19.2189H19.219C19.6503 18.5808 20 18.2312 20 17.7999L19.9999 17.7868V12.7535C19.9999 12.3222 19.6502 11.9725 19.2189 11.9725C18.7876 11.9725 18.4379 12.3222 18.4379 12.7535L18.4379 17.0189H5.56197L5.56197 12.7535C5.56197 12.3222 5.21231 11.9725 4.78098 11.9725C4.34966 11.9725 4 12.3222 4 12.7535V17.7999Z" fill="#868686"/>
</svg>
