<svg width="393" height="488" viewBox="0 0 393 488" fill="none" xmlns="http://www.w3.org/2000/svg">
<g clip-path="url(#clip0_2044_2866)">
<path d="M-43.0549 438.343C-18.725 368.646 25.9256 303.13 118.347 352.7C210.769 402.271 315.898 444.433 337.962 337.714C360.025 230.994 260.98 140.359 452.988 88.813" stroke="white" stroke-width="2.03861" stroke-linecap="round" stroke-linejoin="round" stroke-dasharray="6.12 15.29"/>
<path d="M45.0833 346.33L47.7345 337.545C47.7954 337.343 47.7829 337.129 47.6989 336.936L44.2576 329.016C43.9214 328.242 44.7549 327.466 45.5792 327.785L65.047 335.321C65.8084 335.616 65.878 336.6 65.1656 336.998L46.5591 347.386C45.7782 347.822 44.8364 347.148 45.0833 346.33Z" fill="white"/>
<path d="M50.3894 341.031L51.6476 337.258C51.6765 337.171 51.6711 337.079 51.6324 336.997L50.0463 333.61C49.8913 333.279 50.282 332.944 50.6658 333.079L59.7294 336.262C60.0839 336.387 60.114 336.809 59.7807 336.981L51.0753 341.48C50.7099 341.669 50.2722 341.382 50.3894 341.031Z" fill="white"/>
<path d="M349.372 305.239L341.803 302.459C341.629 302.396 341.44 302.396 341.266 302.459L334.141 305.068C333.445 305.323 332.808 304.552 333.13 303.846L340.747 287.158C341.045 286.506 341.912 286.496 342.224 287.141L350.374 303.999C350.716 304.707 350.076 305.498 349.372 305.239Z" fill="white"/>
<path d="M344.997 300.311L341.753 299.012C341.678 298.982 341.597 298.982 341.523 299.012L338.47 300.228C338.172 300.347 337.898 299.987 338.036 299.657L341.297 291.872C341.425 291.567 341.796 291.562 341.93 291.864L345.426 299.732C345.573 300.063 345.299 300.432 344.997 300.311Z" fill="white"/>
</g>
<defs>
<clipPath id="clip0_2044_2866">
<rect width="365.931" height="486.209" fill="white" transform="matrix(0.279031 0.960282 0.960282 -0.279031 -104.967 135.77)"/>
</clipPath>
</defs>
</svg>
