<svg width="21" height="22" viewBox="0 0 21 22" fill="none" xmlns="http://www.w3.org/2000/svg">
<path d="M10.9375 7.27925C9.85019 7.27925 8.96875 8.16069 8.96875 9.248C8.96875 10.3353 9.85019 11.2168 10.9375 11.2168C12.0248 11.2168 12.9062 10.3353 12.9062 9.248C12.9062 8.16069 12.0248 7.27925 10.9375 7.27925Z" fill="#FEBA10"/>
<path fill-rule="evenodd" clip-rule="evenodd" d="M11.3485 20.2311L11.3497 20.23L11.3541 20.2258L11.3702 20.2104L11.4311 20.1519C11.4839 20.1008 11.5608 20.026 11.6583 19.9298C11.8532 19.7374 12.1307 19.4591 12.4632 19.1133C13.1276 18.4225 14.0153 17.4589 14.9047 16.3703C15.792 15.2843 16.6927 14.0601 17.3746 12.8489C18.0466 11.6553 18.5527 10.3945 18.5527 9.25537C18.5527 5.02694 15.1249 1.59912 10.8965 1.59912C6.66805 1.59912 3.24023 5.02694 3.24023 9.25537C3.24023 10.3945 3.74638 11.6553 4.41839 12.8489C5.10031 14.0601 6.00092 15.2843 6.8883 16.3703C7.77771 17.4589 8.66535 18.4225 9.32974 19.1133C9.66229 19.4591 9.93976 19.7374 10.1347 19.9298C10.2321 20.026 10.309 20.1008 10.3619 20.1519L10.4228 20.2104L10.4389 20.2258L10.4448 20.2315L10.8965 20.6595L11.3485 20.2311ZM10.8965 2.91162C7.39293 2.91162 4.55273 5.75181 4.55273 9.25537C4.55273 10.0493 4.92159 11.0674 5.56208 12.205C6.19266 13.325 7.04205 14.4842 7.90467 15.5399C8.76526 16.5931 9.62761 17.5296 10.2757 18.2035C10.5164 18.4537 10.727 18.6673 10.8965 18.8366C11.0659 18.6673 11.2766 18.4537 11.5172 18.2035C12.1654 17.5296 13.0277 16.5931 13.8883 15.5399C14.7509 14.4842 15.6003 13.325 16.2309 12.205C16.8714 11.0674 17.2402 10.0493 17.2402 9.25537C17.2402 5.75181 14.4 2.91162 10.8965 2.91162ZM10.4448 20.2315C10.4448 20.2315 10.4451 20.2317 10.8965 19.7554L10.4448 20.2315ZM10.8965 19.7554L11.3485 20.2311C11.3485 20.2311 11.3479 20.2317 10.8965 19.7554Z" fill="#FEBA10"/>
</svg>
