<svg width="56" height="41" viewBox="0 0 56 41" fill="none" xmlns="http://www.w3.org/2000/svg">
<path d="M24.8 29.011C24.8 35.623 20.276 40.495 13.316 40.495C6.356 40.495 0.788 34.753 0.788 25.357C0.788 12.655 9.662 2.56303 21.842 0.823027V8.13103C15.056 9.52303 10.184 14.047 10.184 19.615C11.402 18.919 12.968 18.397 15.056 18.397C20.45 18.397 24.8 22.225 24.8 29.011ZM55.946 29.011C55.946 35.623 51.248 40.495 44.462 40.495C37.328 40.495 31.76 34.753 31.76 25.357C31.76 12.655 40.808 2.56303 52.988 0.823027V8.13103C46.202 9.52303 41.33 14.047 41.33 19.441C42.548 18.745 44.114 18.397 46.028 18.397C51.422 18.397 55.946 22.225 55.946 29.011Z" fill="white"/>
</svg>
