<svg width="23" height="23" viewBox="0 0 23 23" fill="none" xmlns="http://www.w3.org/2000/svg">
<path fill-rule="evenodd" clip-rule="evenodd" d="M17.4719 9.60674C17.4719 13.8078 14.0663 17.2135 9.86516 17.2135C5.66408 17.2135 2.25842 13.8078 2.25842 9.60674C2.25842 5.40565 5.66408 2 9.86516 2C14.0663 2 17.4719 5.40565 17.4719 9.60674ZM15.9144 17.0702C14.2629 18.4104 12.1578 19.2135 9.86516 19.2135C4.55951 19.2135 0.258423 14.9124 0.258423 9.60674C0.258423 4.30108 4.55951 0 9.86516 0C15.1708 0 19.4719 4.30108 19.4719 9.60674C19.4719 11.8994 18.6688 14.0044 17.3286 15.6559L22.7071 21.0345C23.0976 21.425 23.0976 22.0582 22.7071 22.4487C22.3166 22.8392 21.6834 22.8392 21.2929 22.4487L15.9144 17.0702Z" fill="#373231"/>
</svg>
