<svg width="18" height="19" viewBox="0 0 18 19" fill="none" xmlns="http://www.w3.org/2000/svg">
<path d="M12.5 17.037C13.7426 17.037 14.75 16.0297 14.75 14.787C14.75 13.5444 13.7426 12.537 12.5 12.537C11.2574 12.537 10.25 13.5444 10.25 14.787C10.25 16.0297 11.2574 17.037 12.5 17.037Z" stroke="#373231" stroke-linecap="round" stroke-linejoin="round"/>
<path d="M12.5 6.53705C13.7426 6.53705 14.75 5.52969 14.75 4.28705C14.75 3.04441 13.7426 2.03705 12.5 2.03705C11.2574 2.03705 10.25 3.04441 10.25 4.28705C10.25 5.52969 11.2574 6.53705 12.5 6.53705Z" stroke="#373231" stroke-linecap="round" stroke-linejoin="round"/>
<path d="M3.5 11.787C4.74264 11.787 5.75 10.7797 5.75 9.53705C5.75 8.29441 4.74264 7.28705 3.5 7.28705C2.25736 7.28705 1.25 8.29441 1.25 9.53705C1.25 10.7797 2.25736 11.787 3.5 11.787Z" stroke="#373231" stroke-linecap="round" stroke-linejoin="round"/>
<path d="M10.625 5.41205L5.375 8.41205" stroke="#373231"/>
<path d="M5.375 10.662L10.625 13.662" stroke="#373231"/>
</svg>
