<svg class="stroke" width="24" height="25" viewBox="0 0 24 25" fill="none" xmlns="http://www.w3.org/2000/svg">
<path d="M16 13.5C13.2386 13.5 11 12.3807 11 11C11 9.61929 13.2386 8.5 16 8.5C18.7614 8.5 21 9.61929 21 11C21 12.3807 18.7614 13.5 16 13.5Z" stroke="#FEBA10" stroke-width="1.5" stroke-linecap="round" stroke-linejoin="round"/>
<path d="M11 15C11 16.3807 13.2386 17.5 16 17.5C18.7614 17.5 21 16.3807 21 15" stroke="#FEBA10" stroke-width="1.5" stroke-linecap="round" stroke-linejoin="round"/>
<path d="M3 10C3 11.3807 5.23858 12.5 8 12.5C9.12583 12.5 10.1647 12.314 11.0005 12" stroke="#FEBA10" stroke-width="1.5" stroke-linecap="round" stroke-linejoin="round"/>
<path d="M3 13.5C3 14.8807 5.23858 16 8 16C9.12561 16 10.1643 15.814 11 15.5002" stroke="#FEBA10" stroke-width="1.5" stroke-linecap="round" stroke-linejoin="round"/>
<path d="M3 6V17C3 18.3807 5.23858 19.5 8 19.5C9.12563 19.5 10.1643 19.3139 11 19" stroke="#FEBA10" stroke-width="1.5" stroke-linecap="round" stroke-linejoin="round"/>
<path d="M13 9V6" stroke="#FEBA10" stroke-width="1.5" stroke-linecap="round" stroke-linejoin="round"/>
<path d="M11 11V19C11 20.3807 13.2386 21.5 16 21.5C18.7614 21.5 21 20.3807 21 19V11" stroke="#FEBA10" stroke-width="1.5" stroke-linecap="round" stroke-linejoin="round"/>
<path d="M8 8.5C5.23858 8.5 3 7.38071 3 6C3 4.61929 5.23858 3.5 8 3.5C10.7614 3.5 13 4.61929 13 6C13 7.38071 10.7614 8.5 8 8.5Z" stroke="#FEBA10" stroke-width="1.5" stroke-linecap="round" stroke-linejoin="round"/>
</svg>
