<svg width="19" height="19" viewBox="0 0 19 19" fill="none" xmlns="http://www.w3.org/2000/svg">
<g clip-path="url(#clip0_2201_7038)">
<path d="M9.5 0.5C4.53043 0.5 0.5 4.53043 0.5 9.5C0.5 14.4696 4.53043 18.5 9.5 18.5C14.4696 18.5 18.5 14.4696 18.5 9.5C18.5 4.53043 14.4696 0.5 9.5 0.5ZM9.5 16.9348C5.3913 16.9348 2.06522 13.6087 2.06522 9.5C2.06522 5.3913 5.3913 2.06522 9.5 2.06522C13.6087 2.06522 16.9348 5.3913 16.9348 9.5C16.9348 13.6087 13.6087 16.9348 9.5 16.9348ZM12.4935 11.3783C12.8065 11.6913 12.8065 12.1804 12.4935 12.4935C12.337 12.65 12.1413 12.7283 11.9457 12.7283C11.75 12.7283 11.5543 12.65 11.3978 12.4935L8.95217 10.0478C8.79565 9.91087 8.71739 9.71522 8.71739 9.5V4.84348C8.71739 4.41304 9.06956 4.06087 9.5 4.06087C9.93043 4.06087 10.2826 4.41304 10.2826 4.84348V9.18696L12.4935 11.3783Z" fill="#868686"/>
</g>
<defs>
<clipPath id="clip0_2201_7038">
<rect width="18" height="18" fill="white" transform="translate(0.5 0.5)"/>
</clipPath>
</defs>
</svg>
