<svg width="16" height="18" viewBox="0 0 16 18" fill="none" xmlns="http://www.w3.org/2000/svg">
<path fill-rule="evenodd" clip-rule="evenodd" d="M1.44324 1.1C1.44324 1.04477 1.48801 1 1.54324 1H10.4834V3.24671C10.4834 3.85422 10.9759 4.34671 11.5834 4.34671H13.8301V8.86677C13.8301 9.14291 14.0539 9.36677 14.3301 9.36677C14.6062 9.36677 14.8301 9.14291 14.8301 8.86677V3.84671V3.6769C14.8301 3.38516 14.7142 3.10537 14.5079 2.89908L11.931 0.322183C11.7247 0.115893 11.4449 0 11.1532 0H10.9834H1.54324C0.935725 0 0.443237 0.492486 0.443237 1.1V16.6335C0.443237 17.2411 0.935723 17.7335 1.54324 17.7335H6.79998C7.07612 17.7335 7.29998 17.5097 7.29998 17.2335C7.29998 16.9574 7.07612 16.7335 6.79998 16.7335H1.54324C1.48801 16.7335 1.44324 16.6888 1.44324 16.6335V1.1ZM11.4834 1.28877V3.24671C11.4834 3.30194 11.5281 3.34671 11.5834 3.34671H13.5413L11.4834 1.28877ZM4.28995 3.34671C4.0138 3.34671 3.78995 3.57057 3.78995 3.84671C3.78995 4.12285 4.0138 4.34671 4.28995 4.34671H7.63666C7.9128 4.34671 8.13666 4.12285 8.13666 3.84671C8.13666 3.57057 7.9128 3.34671 7.63666 3.34671H4.28995ZM4.28995 6.69342C4.0138 6.69342 3.78995 6.91728 3.78995 7.19342C3.78995 7.46956 4.0138 7.69342 4.28995 7.69342H10.9834C11.2595 7.69342 11.4834 7.46956 11.4834 7.19342C11.4834 6.91728 11.2595 6.69342 10.9834 6.69342H4.28995ZM4.28995 10.0401C4.0138 10.0401 3.78995 10.264 3.78995 10.5401C3.78995 10.8163 4.0138 11.0401 4.28995 11.0401H6.79998C7.07612 11.0401 7.29998 10.8163 7.29998 10.5401C7.29998 10.264 7.07612 10.0401 6.79998 10.0401H4.28995ZM15.1355 13.8432C15.6972 13.2816 15.6972 12.371 15.1355 11.8093C14.5739 11.2477 13.6633 11.2477 13.1016 11.8093L12.265 12.646L9.80006 15.1109C9.5752 15.3358 9.42762 15.6263 9.37863 15.9405L9.18379 17.19C9.15919 17.3477 9.21139 17.5077 9.32426 17.6206C9.43713 17.7335 9.59712 17.7857 9.75484 17.7611L11.0043 17.5663C11.3185 17.5173 11.6091 17.3697 11.8339 17.1448L14.2988 14.6799L15.1355 13.8432ZM14.4284 12.5164C14.5995 12.6876 14.5995 12.965 14.4284 13.1361L13.9453 13.6192L13.3256 12.9996L13.8087 12.5164C13.9799 12.3453 14.2573 12.3453 14.4284 12.5164ZM12.6185 13.7067L13.2382 14.3264L11.1268 16.4377C11.0519 16.5127 10.955 16.5619 10.8503 16.5782L10.2773 16.6675L10.3667 16.0945C10.383 15.9898 10.4322 15.893 10.5072 15.818L12.6185 13.7067Z" fill="#373231"/>
</svg>
