<svg width="24" height="25" viewBox="0 0 24 25" fill="none" xmlns="http://www.w3.org/2000/svg">
<path fill-rule="evenodd" clip-rule="evenodd" d="M12 7.15705C9.64608 5.986 7.69188 5.77131 5.72825 6.17851C5.18654 6.29084 4.81595 6.73992 4.75796 7.25H3.98251C3.28797 7.25 2.75 7.84676 2.75 8.54696V17.4531C2.75 18.1533 3.28799 18.75 3.98251 18.75H20.0175C20.712 18.75 21.25 18.1533 21.25 17.4531V8.54696C21.25 7.84676 20.712 7.25 20.0175 7.25H19.242C19.184 6.73992 18.8135 6.29085 18.2718 6.17852C16.3081 5.77132 14.3539 5.986 12 7.15705ZM4.01596 8.56613H4.75V15.4639C4.75 16.1945 5.36558 16.749 6.06756 16.7188C7.25436 16.6678 8.11491 16.7566 8.87604 17.0007C9.21303 17.1087 9.54079 17.2505 9.8771 17.4339H4.01596V8.56613ZM19.984 17.4339H14.1229C14.4592 17.2505 14.787 17.1087 15.124 17.0007C15.8851 16.7566 16.7456 16.6678 17.9324 16.7188C18.6344 16.749 19.25 16.1945 19.25 15.4639V8.56613H19.984V17.4339ZM6.25 7.60522V15.2113C7.42939 15.1774 8.41017 15.2761 9.33405 15.5723C10.0065 15.788 10.6246 16.1005 11.25 16.5111V8.45964C9.29869 7.50494 7.75974 7.33416 6.25 7.60522ZM12.75 8.45964C14.7013 7.50494 16.2403 7.33417 17.75 7.60523V15.2113C16.5706 15.1774 15.5898 15.2761 14.6659 15.5723C13.9935 15.788 13.3754 16.1005 12.75 16.5111V8.45964Z" fill="#FEBA10"/>
</svg>
