<svg width="24" height="25" viewBox="0 0 24 25" fill="none" xmlns="http://www.w3.org/2000/svg">
<path fill-rule="evenodd" clip-rule="evenodd" d="M4.75 3.25V21.75H11C11.4142 21.75 11.75 22.0858 11.75 22.5C11.75 22.9142 11.4142 23.25 11 23.25H4.6C3.85441 23.25 3.25 22.6456 3.25 21.9V3.1C3.25 2.35441 3.85442 1.75 4.6 1.75H16.2515C16.6095 1.75 16.9529 1.89223 17.2061 2.14541L20.3546 5.29393C20.6078 5.54711 20.75 5.89049 20.75 6.24853V12.5C20.75 12.9142 20.4142 13.25 20 13.25C19.5858 13.25 19.25 12.9142 19.25 12.5V6.31066L16.1893 3.25H4.75Z" fill="#FEBA10"/>
<path fill-rule="evenodd" clip-rule="evenodd" d="M7.25 6.5C7.25 6.08579 7.58579 5.75 8 5.75H12C12.4142 5.75 12.75 6.08579 12.75 6.5C12.75 6.91421 12.4142 7.25 12 7.25H8C7.58579 7.25 7.25 6.91421 7.25 6.5ZM7.25 10.5C7.25 10.0858 7.58579 9.75 8 9.75H16C16.4142 9.75 16.75 10.0858 16.75 10.5C16.75 10.9142 16.4142 11.25 16 11.25H8C7.58579 11.25 7.25 10.9142 7.25 10.5ZM7.25 14.5C7.25 14.0858 7.58579 13.75 8 13.75H11C11.4142 13.75 11.75 14.0858 11.75 14.5C11.75 14.9142 11.4142 15.25 11 15.25H8C7.58579 15.25 7.25 14.9142 7.25 14.5Z" fill="#FEBA10"/>
<path fill-rule="evenodd" clip-rule="evenodd" d="M21.0704 18.5555C21.8012 17.8247 21.8012 16.6399 21.0704 15.9091C20.3396 15.1783 19.1548 15.1783 18.424 15.9091L14.4329 19.9002C14.1706 20.1625 13.9984 20.5014 13.9412 20.868L13.6986 22.4244C13.6617 22.6609 13.74 22.9009 13.9093 23.0702C14.0786 23.2396 14.3185 23.3178 14.5551 23.281L16.1114 23.0383C16.478 22.9812 16.817 22.809 17.0793 22.5467L21.0704 18.5555ZM20.0098 16.9697C20.1548 17.1147 20.1548 17.3499 20.0098 17.4949L19.5401 17.9645L19.015 17.4394L19.4847 16.9697C19.6297 16.8247 19.8648 16.8247 20.0098 16.9697ZM17.9543 18.5001L18.4794 19.0252L16.0186 21.486C15.9812 21.5235 15.9328 21.5481 15.8804 21.5562L15.3389 21.6407L15.4233 21.0991C15.4315 21.0467 15.4561 20.9983 15.4936 20.9608L17.9543 18.5001Z" fill="#FEBA10"/>
<path fill-rule="evenodd" clip-rule="evenodd" d="M16 1.75C16.4142 1.75 16.75 2.08579 16.75 2.5V5.75H20C20.4142 5.75 20.75 6.08579 20.75 6.5C20.75 6.91421 20.4142 7.25 20 7.25H16.6C15.8544 7.25 15.25 6.64558 15.25 5.9V2.5C15.25 2.08579 15.5858 1.75 16 1.75Z" fill="#FEBA10"/>
</svg>
