<svg width="18" height="16" viewBox="0 0 18 16" fill="none" xmlns="http://www.w3.org/2000/svg">
<path d="M2.96088 5.80845C2.72583 6.01571 2.5156 6.19746 2.3097 6.38614C2.2852 6.40851 2.27869 6.47087 2.2883 6.5093C2.50009 7.43128 2.71591 8.35263 2.92956 9.27398C3.1092 10.0487 3.2875 10.8234 3.46446 11.5983C3.46642 11.6245 3.46642 11.6508 3.46446 11.6771C3.21267 11.5019 2.98413 11.3258 2.73917 11.1778C2.488 11.026 2.36706 10.8225 2.30505 10.5264C2.08117 9.46739 1.82379 8.41595 1.57852 7.36136C1.56797 7.31631 1.55154 7.27284 1.52363 7.1837C1.31494 7.4653 1.12238 7.71919 0.939431 7.97905C0.917105 8.01055 0.93943 8.08017 0.951524 8.12962C1.08569 8.71067 1.22078 9.29152 1.35681 9.87215C1.35733 9.89406 1.35609 9.91597 1.35308 9.93767C1.20455 9.76537 1.06564 9.61638 0.940361 9.45574C0.617562 9.04215 0.281119 8.63676 0.0662299 8.14789C-0.0236949 7.94252 -0.0323772 7.77903 0.104991 7.57303C1.31587 5.76057 2.92677 4.46784 4.93457 3.67721C5.83068 3.32828 6.76486 3.09012 7.71697 2.96785C7.761 2.96187 7.80379 2.94706 7.86302 2.93257C7.65247 2.02508 7.44502 1.13145 7.23324 0.218289L8.08318 0C8.13527 0.209469 8.18923 0.413899 8.23822 0.619904C8.40164 1.32234 8.56598 2.02477 8.72196 2.73035C8.74893 2.85225 8.79793 2.88249 8.91731 2.88501C10.4659 2.91651 11.9561 3.22331 13.3776 3.86148C15.12 4.6392 16.5268 5.8305 17.6112 7.41585C17.7352 7.59665 17.8459 7.78596 17.9647 7.97023C18.0072 8.03607 18.0149 8.08647 17.9681 8.16521C17.0146 9.76789 15.7333 11.0168 14.1109 11.9029C13.2352 12.382 12.2981 12.7351 11.3267 12.9521C11.1124 13 11.1112 13.0003 11.1716 13.2539C11.3163 13.8744 11.4624 14.4948 11.6098 15.1149C11.66 15.3288 11.7081 15.5433 11.763 15.7817L10.9084 16C10.5285 14.369 10.1518 12.7524 9.77563 11.1384L8.80723 11.3032L9.25003 13.2246C8.9539 13.2246 8.67265 13.2284 8.39172 13.2189C8.3635 13.2189 8.32443 13.1389 8.31264 13.0907C8.1669 12.4803 8.02799 11.8679 7.87852 11.2584C7.85464 11.1895 7.80633 11.1321 7.74302 11.0975C7.45092 10.9378 7.15385 10.7891 6.85152 10.6335C7.03757 11.4399 7.22672 12.2582 7.42394 13.1112C7.20688 13.0722 7.00936 13.0262 6.80935 13.0038C6.55229 12.9748 6.44376 12.851 6.38639 12.5823C6.13522 11.4068 5.85491 10.2379 5.58203 9.06703C5.31432 7.92719 5.04538 6.78744 4.77519 5.6478C4.71317 5.38384 4.65394 5.11924 4.58573 4.82158C4.31378 4.97214 4.06106 5.10853 3.81361 5.25375C3.78571 5.27013 3.76834 5.341 3.77702 5.37974C3.89082 5.89507 4.0099 6.40945 4.12866 6.9232C4.33538 7.81967 4.54335 8.71603 4.75255 9.61229C4.92155 10.3349 5.09365 11.0565 5.2645 11.7791C5.32652 12.0472 5.38389 12.3165 5.45273 12.6274C5.11938 12.4872 4.81116 12.3625 4.5082 12.2255C4.4651 12.2059 4.43409 12.131 4.42107 12.0749C4.2222 11.2349 4.02582 10.3949 3.83191 9.55496C3.58777 8.50498 3.34404 7.45575 3.10073 6.40725C3.05793 6.22424 3.01514 6.04122 2.96088 5.80845ZM12.3124 11.6862C12.35 11.678 12.3648 11.6764 12.3782 11.6717C13.2254 11.3685 14.0246 10.9413 14.7503 10.4035C15.5836 9.78938 16.3072 9.0349 16.8899 8.17277C16.9346 8.10663 16.9628 8.0556 16.9033 7.98063C16.6375 7.64642 16.3916 7.29521 16.1104 6.97549C15.3641 6.13057 14.464 5.44014 13.4598 4.94222C13.1118 4.76771 12.7509 4.61967 12.3962 4.45965L12.371 4.49556C13.2681 5.51897 13.7491 6.70743 13.7432 8.08206C13.737 9.46393 13.2517 10.6549 12.3124 11.6862ZM8.9908 3.85896C9.06491 4.18183 9.13654 4.50249 9.21592 4.82126C9.22368 4.85276 9.27794 4.87702 9.31732 4.89119C9.61128 4.99955 9.9254 5.06822 10.1977 5.21689C11.2519 5.79238 11.803 6.71405 11.8699 7.91637C11.9217 8.85127 11.6048 9.66489 10.9598 10.3399C10.8392 10.4659 10.6498 10.5677 10.6076 10.7148C10.5654 10.8619 10.6615 11.0575 10.7006 11.2307C10.7378 11.3917 10.7809 11.5514 10.8222 11.7155C12.3704 10.83 13.3168 8.74039 12.647 6.70271C12.007 4.75228 10.2113 3.81896 8.9908 3.85896ZM6.24127 4.20545C5.97336 4.29208 5.72777 4.36799 5.4859 4.45461C5.45924 4.46406 5.43319 4.53903 5.44125 4.57557C5.55567 5.0909 5.67568 5.60528 5.79537 6.11903C5.84002 6.30991 5.88839 6.50017 5.94173 6.72633C5.98235 6.6542 6.00375 6.61451 6.02638 6.57734C6.156 6.37606 6.26794 6.15903 6.42236 5.97886C6.55694 5.82136 6.60624 5.69032 6.5464 5.48149C6.42887 5.07452 6.34546 4.6518 6.24127 4.20608V4.20545ZM8.07915 3.85266L7.10455 3.99724C7.20006 4.40673 7.2906 4.7885 7.37587 5.15862L8.31233 4.85402C8.2376 4.53462 8.16225 4.20955 8.07915 3.85329V3.85266Z" fill="#373231"/>
</svg>
