<svg width="19" height="19" viewBox="0 0 19 19" fill="none" xmlns="http://www.w3.org/2000/svg">
<path d="M17.8043 9.40213C17.8043 4.76176 14.0425 1 9.40213 1C4.76176 1 1 4.76176 1 9.40213C1 14.0425 4.76176 17.8043 9.40213 17.8043" stroke="#FEBA10" stroke-width="1.5" stroke-linecap="round" stroke-linejoin="round"/>
<path d="M10.2424 1.0415C10.2424 1.0415 12.763 4.36087 12.763 9.40215" stroke="#FEBA10" stroke-width="1.5" stroke-linecap="round" stroke-linejoin="round"/>
<path d="M8.5619 17.7628C8.5619 17.7628 6.04126 14.4434 6.04126 9.40215C6.04126 4.36087 8.5619 1.0415 8.5619 1.0415" stroke="#FEBA10" stroke-width="1.5" stroke-linecap="round" stroke-linejoin="round"/>
<path d="M1.52924 12.3428H9.40236" stroke="#FEBA10" stroke-width="1.5" stroke-linecap="round" stroke-linejoin="round"/>
<path d="M1.52924 6.46143H17.2755" stroke="#FEBA10" stroke-width="1.5" stroke-linecap="round" stroke-linejoin="round"/>
<path fill-rule="evenodd" clip-rule="evenodd" d="M17.7027 14.3738C18.1175 14.629 18.0921 15.2502 17.6647 15.2986L15.5082 15.5431L14.541 17.4859C14.3493 17.8709 13.7569 17.6824 13.6589 17.2052L12.6042 12.0665C12.5215 11.6632 12.8839 11.4094 13.2345 11.6251L17.7027 14.3738Z" stroke="#FEBA10" stroke-width="1.5"/>
</svg>
