<svg width="24" height="25" viewBox="0 0 24 25" fill="none" xmlns="http://www.w3.org/2000/svg">
<path d="M11.6327 9.79705C11.9098 9.48916 11.8848 9.01495 11.577 8.73785C11.2691 8.46076 10.7949 8.48572 10.5178 8.7936L10.507 8.8056C10.2299 9.11348 10.2548 9.5877 10.5627 9.86479C10.8706 10.1419 11.3448 10.1169 11.6219 9.80905L11.6327 9.79705Z" fill="white"/>
<path d="M7.76821 9.79707C8.0453 9.48918 8.02034 9.01497 7.71246 8.73787C7.40458 8.46078 6.93036 8.48574 6.65326 8.79362L6.64246 8.80562C6.36537 9.1135 6.39033 9.58772 6.69821 9.86481C7.00609 10.1419 7.48031 10.117 7.7574 9.80907L7.76821 9.79707Z" fill="white"/>
<path d="M7.71246 12.6023C8.02034 12.8793 8.0453 13.3536 7.76821 13.6614L7.7574 13.6734C7.48031 13.9813 7.00609 14.0063 6.69821 13.7292C6.39033 13.4521 6.36537 12.9779 6.64246 12.67L6.65326 12.658C6.93036 12.3501 7.40458 12.3252 7.71246 12.6023Z" fill="white"/>
<path d="M11.6327 13.6614C11.9098 13.3536 11.8848 12.8793 11.577 12.6023C11.2691 12.3252 10.7949 12.3501 10.5178 12.658L10.507 12.67C10.2299 12.9779 10.2548 13.4521 10.5627 13.7292C10.8706 14.0063 11.3448 13.9813 11.6219 13.6734L11.6327 13.6614Z" fill="white"/>
<path d="M7.71246 16.4666C8.02034 16.7437 8.0453 17.2179 7.76821 17.5258L7.7574 17.5378C7.48031 17.8457 7.00609 17.8707 6.69821 17.5936C6.39033 17.3165 6.36537 16.8423 6.64246 16.5344L6.65326 16.5224C6.93036 16.2145 7.40458 16.1895 7.71246 16.4666Z" fill="white"/>
<path d="M11.6327 17.5258C11.9098 17.2179 11.8848 16.7437 11.577 16.4666C11.2691 16.1895 10.7949 16.2145 10.5178 16.5224L10.507 16.5344C10.2299 16.8423 10.2548 17.3165 10.5627 17.5936C10.8706 17.8707 11.3448 17.8457 11.6219 17.5378L11.6327 17.5258Z" fill="white"/>
<path d="M17.488 15.8995C17.2109 15.5916 17.2359 15.1174 17.5438 14.8403C17.8517 14.5632 18.3259 14.5882 18.603 14.896L18.6082 14.9019C18.8853 15.2098 18.8604 15.684 18.5525 15.9611C18.2446 16.2382 17.7704 16.2132 17.4933 15.9053L17.488 15.8995Z" fill="white"/>
<path d="M17.5438 17.586C17.2359 17.8631 17.2109 18.3373 17.488 18.6452L17.4933 18.6511C17.7704 18.9589 18.2446 18.9839 18.5525 18.7068C18.8604 18.4297 18.8853 17.9555 18.6082 17.6476L18.603 17.6418C18.3259 17.3339 17.8517 17.3089 17.5438 17.586Z" fill="white"/>
<path fill-rule="evenodd" clip-rule="evenodd" d="M14.9862 21.6397H4.00674C3.26115 21.6397 2.65674 21.0353 2.65674 20.2897V6.03209C2.65674 5.2865 3.26116 4.68209 4.00674 4.68209H8.45336V4.09988C8.45336 3.3543 9.05778 2.74988 9.80336 2.74988H14.4C15.1456 2.74988 15.75 3.35429 15.75 4.09988V9.9873H17.4507C18.1963 9.9873 18.8007 10.5917 18.8007 11.3373V12.0043H20.5016C21.2472 12.0043 21.8516 12.6087 21.8516 13.3543V20.2899C21.8516 21.0354 21.2472 21.6399 20.5016 21.6399H14.9999C14.9953 21.6399 14.9907 21.6398 14.9862 21.6397ZM14.25 10.7236C14.2499 10.7282 14.2499 10.7327 14.2499 10.7373V20.1397H4.15674V6.18209H9.20336C9.61757 6.18209 9.95336 5.8463 9.95336 5.43209V4.24988H14.25V10.7236ZM15.75 20.1399V11.4873H17.3007V12.7543C17.3007 13.1685 17.6365 13.5043 18.0507 13.5043H20.3516V20.1399H15.75Z" fill="white"/>
</svg>
