<svg width="359" height="477" viewBox="0 0 359 477" fill="none" xmlns="http://www.w3.org/2000/svg">
<g clip-path="url(#clip0_3_582)">
<path d="M302 -24.5005C243 17.4995 193.5 77.4995 265.5 151C337.5 224.5 406 312 311.5 362C217 412 104.5 343.5 108.5 538.5" stroke="#FFE073" stroke-width="2" stroke-linecap="round" stroke-linejoin="round" stroke-dasharray="6 15"/>
<path d="M239.443 83.7221L231.893 88.6247C231.719 88.7373 231.514 88.7842 231.309 88.758L222.905 87.6839C222.085 87.579 221.582 88.5767 222.108 89.2659L234.536 105.544C235.023 106.18 235.969 105.976 236.149 105.196L240.842 84.8235C241.039 83.9684 240.146 83.2656 239.443 83.7221Z" fill="#FFE073"/>
<path d="M235.903 90.1717L232.693 92.3898C232.619 92.4407 232.531 92.4609 232.443 92.4471L228.818 91.8799C228.464 91.8245 228.255 92.2843 228.487 92.6089L233.967 100.276C234.182 100.576 234.587 100.489 234.658 100.128L236.514 90.6949C236.592 90.299 236.202 89.9651 235.903 90.1717Z" fill="#FEBA10"/>
<path d="M284.029 381.638L279.338 375.269C279.231 375.122 279.179 374.945 279.191 374.763L279.699 367.337C279.749 366.611 278.848 366.222 278.27 366.719L264.634 378.462C264.101 378.922 264.329 379.741 265.022 379.859L283.135 382.922C283.896 383.051 284.466 382.231 284.029 381.638Z" fill="#FFE073"/>
<path d="M278.189 378.866L276.077 376.166C276.029 376.103 276.007 376.027 276.014 375.949L276.324 372.74C276.355 372.426 275.94 372.267 275.668 372.488L269.225 377.691C268.974 377.895 269.071 378.246 269.391 378.29L277.762 379.429C278.113 379.477 278.386 379.118 278.189 378.866Z" fill="#FEBA10"/>
</g>
<defs>
<clipPath id="clip0_3_582">
<rect width="359" height="477" fill="white" transform="translate(0 0.000488281)"/>
</clipPath>
</defs>
</svg>
