<svg width="16" height="19" viewBox="0 0 16 19" fill="none" xmlns="http://www.w3.org/2000/svg">
<g clip-path="url(#clip0_2425_1761)">
<path fill-rule="evenodd" clip-rule="evenodd" d="M1.5906 1.71821C1.5906 1.66412 1.63445 1.62026 1.68855 1.62026H10.752V3.9231C10.752 4.51817 11.2344 5.00057 11.8295 5.00057H14.1323V9.58127C14.1323 9.85175 14.3516 10.071 14.6221 10.071C14.8925 10.071 15.1118 9.85175 15.1118 9.58127V4.5132C15.1118 4.5124 15.1118 4.51161 15.1118 4.51081C15.1118 4.51001 15.1118 4.50921 15.1118 4.50842V4.33171C15.1118 4.04595 14.9983 3.77189 14.7962 3.56982L12.1827 0.956329C11.9807 0.754265 11.7066 0.640747 11.4209 0.640747H11.2418H1.68855C1.09348 0.640747 0.611084 1.12314 0.611084 1.71821V17.4443C0.611084 18.0394 1.09348 18.5218 1.68855 18.5218H7.01637C7.28686 18.5218 7.50613 18.3025 7.50613 18.032C7.50613 17.7615 7.28686 17.5423 7.01637 17.5423H1.68855C1.63445 17.5423 1.5906 17.4984 1.5906 17.4443V1.71821ZM11.7315 1.89035V3.9231C11.7315 3.9772 11.7754 4.02105 11.8295 4.02105H13.8622L11.7315 1.89035Z" fill="#373231"/>
<path d="M8.66797 13.7635L8.62705 13.7703V13.8118V16.4339V16.4829H8.67603H9.15024H9.19922V16.4339V15.493C9.26829 15.5066 9.33582 15.5066 9.39828 15.5066H9.4013C9.74236 15.5066 10.0645 15.4216 10.2728 15.2133C10.4234 15.0627 10.5103 14.8259 10.5103 14.565C10.5103 14.3018 10.4219 14.0918 10.2416 13.9415C10.0626 13.7923 9.79891 13.707 9.4292 13.707C9.09172 13.707 8.83797 13.7351 8.66797 13.7635ZM9.4013 15.046C9.34488 15.046 9.2983 15.046 9.25892 15.0427C9.23491 15.0407 9.21531 15.0376 9.19922 15.0332V14.2083C9.21555 14.204 9.23593 14.2009 9.26209 14.1988C9.30512 14.1955 9.35876 14.1955 9.4292 14.1955C9.60563 14.1955 9.73229 14.2297 9.81407 14.2933C9.89347 14.355 9.93812 14.4506 9.93812 14.5929C9.93812 14.7486 9.88676 14.859 9.79896 14.9317C9.70968 15.0056 9.57594 15.046 9.4013 15.046Z" fill="#231F20" stroke="black" stroke-width="0.0979514"/>
<path d="M12.8093 14.0262L12.8094 14.0262L12.8068 14.0242C12.5449 13.8205 12.1986 13.707 11.6888 13.707C11.4082 13.707 11.1282 13.7349 10.9047 13.7628H10.8799H10.8309V13.8118V16.4339V16.4829H10.8799C10.9513 16.4829 11.0332 16.4881 11.1278 16.4941C11.1415 16.495 11.1555 16.4959 11.1697 16.4968C11.2815 16.5038 11.4083 16.5108 11.5494 16.5108C12.0847 16.5108 12.5175 16.3983 12.8094 16.1357C13.0725 15.9018 13.2442 15.525 13.2442 15.0392C13.2442 14.5784 13.0705 14.2584 12.8093 14.0262ZM11.6609 16.0502H11.6603H11.6596H11.659H11.6583H11.6577H11.657H11.6564H11.6557H11.6551H11.6544H11.6538H11.6531H11.6524H11.6518H11.6511H11.6505H11.6498H11.6492H11.6485H11.6479H11.6472H11.6466H11.6459H11.6453H11.6446H11.644H11.6433H11.6427H11.642H11.6413H11.6407H11.64H11.6394H11.6387H11.6381H11.6374H11.6368H11.6361H11.6355H11.6348H11.6342H11.6335H11.6329H11.6322H11.6316H11.6309H11.6303H11.6296H11.629H11.6283H11.6277H11.627H11.6264H11.6257H11.6251H11.6244H11.6238H11.6231H11.6225H11.6218H11.6212H11.6205H11.6199H11.6192H11.6186H11.6179H11.6173H11.6166H11.616H11.6153H11.6147H11.614H11.6134H11.6127H11.6121H11.6114H11.6108H11.6101H11.6095H11.6089H11.6082H11.6076H11.6069H11.6063H11.6056H11.605H11.6043H11.6037H11.6031H11.6024H11.6018H11.6011H11.6005H11.5998H11.5992H11.5986H11.5979H11.5973H11.5966H11.596H11.5953H11.5947H11.5941H11.5934H11.5928H11.5921H11.5915H11.5909H11.5902H11.5896H11.5889H11.5883H11.5877H11.587H11.5864H11.5858H11.5851H11.5845H11.5838H11.5832H11.5826H11.5819H11.5813H11.5807H11.58H11.5794H11.5788H11.5781H11.5775H11.5769H11.5762H11.5756H11.575H11.5743H11.5737H11.5731H11.5724H11.5718H11.5712H11.5706H11.5699H11.5693H11.5687H11.568H11.5674H11.5668H11.5662H11.5655H11.5649H11.5643H11.5637H11.563H11.5624H11.5618H11.5612H11.5605H11.5599H11.5593H11.5587H11.558H11.5574H11.5568H11.5562H11.5556H11.5549H11.5543H11.5537H11.5531H11.5525H11.5518H11.5512H11.5506H11.55H11.5494H11.5488H11.5481H11.5475H11.5469H11.5463H11.5457H11.5451H11.5445H11.5439H11.5432H11.5426H11.542H11.5414H11.5408H11.5402H11.5396H11.539H11.5384H11.5378H11.5371H11.5365H11.5359H11.5353H11.5347H11.5341H11.5335H11.5329H11.5323H11.5317H11.5311H11.5305H11.5299H11.5293H11.5287H11.5281H11.5275H11.5269H11.5263H11.5257H11.5251H11.5245H11.5239H11.5233H11.5227H11.5221H11.5215H11.5209H11.5204H11.5198H11.5192H11.5186H11.518H11.5174H11.5168H11.5162H11.5156H11.515H11.5145H11.5139H11.5133H11.5127H11.5121H11.5115H11.5109H11.5104H11.5098H11.5092H11.5086H11.508H11.5075H11.5069H11.5063H11.5057H11.5051H11.5046H11.504H11.5034H11.5028H11.5023H11.5017H11.5011H11.5006H11.5H11.4994H11.4988H11.4983H11.4977H11.4971H11.4966H11.496H11.4954H11.4949H11.4943H11.4937H11.4932H11.4926H11.492H11.4915H11.4909H11.4904H11.4898H11.4892H11.4887H11.4881H11.4876H11.487H11.4865H11.4859H11.4853H11.4848H11.4842H11.4837H11.4831H11.4826H11.482H11.4815H11.4809H11.4804H11.4798H11.4793H11.4788H11.4782H11.4777H11.4771H11.4766H11.476H11.4755H11.475H11.4744H11.4739H11.4733H11.4728H11.4723H11.4717H11.4712H11.4707H11.4701H11.4696H11.4691H11.4685H11.468H11.4675H11.4669H11.4664H11.4659H11.4654H11.4648H11.4643H11.4638H11.4633H11.4627H11.4622H11.4617H11.4612H11.4607H11.4601H11.4596H11.4591H11.4586H11.4581H11.4576H11.457H11.4565H11.456H11.4555H11.455H11.4545H11.454H11.4535H11.453H11.4525H11.452H11.4514H11.4509H11.4504H11.4499H11.4494H11.4489H11.4484H11.4479H11.4474H11.447H11.4465H11.446H11.4455H11.445H11.4445H11.444H11.4435H11.443H11.4425H11.442H11.4416H11.4411H11.4406H11.4401H11.4396H11.4391H11.4387H11.4382H11.4377H11.4372H11.4367H11.4363H11.4358H11.4353H11.4348H11.4344H11.4339H11.4334H11.433H11.4325H11.432H11.4316H11.4311H11.431V14.209C11.45 14.2045 11.4759 14.2011 11.5106 14.1989C11.5645 14.1955 11.6325 14.1955 11.7167 14.1955C12.015 14.1955 12.2382 14.2767 12.3868 14.4221C12.5353 14.5674 12.6162 14.7834 12.6162 15.0671C12.6162 15.4077 12.5277 15.6513 12.369 15.81C12.2103 15.9687 11.9737 16.0502 11.6609 16.0502Z" fill="#231F20" stroke="black" stroke-width="0.0979514"/>
<path d="M13.6136 13.7349H13.5647V13.7839V16.4618V16.5108H13.6136H14.0879H14.1368V16.4618V15.3671H15.0642H15.1132V15.3181V14.9276V14.8786H15.0642H14.1368V14.2234H15.1479H15.1969V14.1744V13.7839V13.7349H15.1479H13.6136Z" fill="#231F20" stroke="black" stroke-width="0.0979514"/>
<path d="M10.5329 9.68099C10.5363 9.67911 10.5399 9.67726 10.544 9.67563C10.5517 9.67253 10.5606 9.67023 10.5706 9.67005C10.5719 9.68284 10.5719 9.69916 10.5719 9.71902H10.5229C10.5229 9.70634 10.5229 9.69618 10.5226 9.6876C10.5241 9.68656 10.5257 9.68545 10.5275 9.68431M10.5329 9.68099C10.5312 9.68002 10.5294 9.67877 10.5276 9.67717C10.5212 9.67149 10.5203 9.66601 10.5209 9.66813C10.5214 9.67018 10.5221 9.67489 10.5225 9.68431H10.5275M10.5329 9.68099C10.531 9.68209 10.5292 9.68321 10.5275 9.68431M10.5329 9.68099C10.5383 9.68397 10.5429 9.68431 10.544 9.68431H10.5275M7.16291 5.20768C7.16287 5.20764 7.16281 5.20758 7.16274 5.20751L7.16291 5.20768ZM7.16291 5.20768L7.16296 5.20772C7.16294 5.20771 7.16293 5.2077 7.16291 5.20768ZM3.57754 11.4413L3.577 11.4412V11.4485C3.577 11.6507 3.63444 11.8332 3.78588 11.9571C3.88444 12.0838 4.04262 12.1112 4.18388 12.1112C4.50847 12.1112 4.91101 11.907 5.19702 11.5091C5.50635 11.2261 5.78506 10.753 6.0596 10.2326C6.71948 9.98589 7.56419 9.71432 8.38272 9.57565C9.3287 10.3211 10.1215 10.4702 10.5891 10.2949L10.5891 10.295L10.5918 10.2938C10.8541 10.1772 11.008 9.99764 11.0388 9.75398C11.0689 9.57148 11.0081 9.38861 10.8855 9.26596C10.6471 9.02757 10.21 8.91687 9.48397 8.91687C9.18169 8.91687 8.87975 8.94368 8.55238 8.99711L8.29121 8.73595C7.85504 8.29978 7.52615 7.78226 7.30508 7.29009C7.37181 7.10298 7.42536 6.949 7.46255 6.84081C7.48176 6.78494 7.4966 6.74128 7.50665 6.71157L7.51807 6.67768L7.52098 6.669L7.52172 6.66679L7.52191 6.66623L7.52196 6.66608L7.52197 6.66605L7.52197 6.66604L7.47551 6.65054L7.52198 6.66603L7.52226 6.66515C7.73255 5.99222 7.76926 5.56664 7.74041 5.2925C7.72594 5.15506 7.69499 5.05566 7.6612 4.98246C7.62985 4.91453 7.59653 4.87039 7.57526 4.84221C7.57359 4.84 7.572 4.83788 7.57048 4.83587C7.47654 4.71061 7.29248 4.59165 6.99642 4.62125L6.9964 4.62102L6.99169 4.62196C6.91815 4.63667 6.81314 4.66649 6.70782 4.74171C6.60206 4.81726 6.49861 4.93674 6.42558 5.12662L6.42548 5.12659L6.42454 5.1296C6.28134 5.58783 6.33909 6.42912 6.69797 7.29404C6.47575 7.95784 6.09242 8.94199 5.68162 9.76616C5.52277 9.8448 5.38906 9.89831 5.25377 9.95243C4.92818 10.0799 4.53333 10.3056 4.20873 10.5702C4.0463 10.7026 3.9003 10.8457 3.78919 10.9922C3.67839 11.1383 3.60013 11.2906 3.57754 11.4413ZM4.84663 11.1349L4.8466 11.1349L4.84527 11.1363C4.68146 11.3138 4.51915 11.4281 4.39001 11.4877C4.32522 11.5176 4.27066 11.5329 4.22961 11.5366C4.18656 11.5405 4.1683 11.531 4.16272 11.5255L4.15359 11.5163C4.16584 11.4753 4.19895 11.4175 4.25642 11.3463C4.32327 11.2635 4.41768 11.1689 4.53292 11.0709C4.72817 10.9048 4.98056 10.731 5.25402 10.5897C5.11666 10.8092 4.98096 11.0006 4.84663 11.1349ZM9.17062 9.48904H9.17065H9.17141H9.17217H9.17293H9.17369H9.17445H9.17521H9.17597H9.17672H9.17748H9.17824H9.17899H9.17975H9.1805H9.18125H9.18201H9.18276H9.18351H9.18426H9.18501H9.18577H9.18652H9.18727H9.18802H9.18876H9.18951H9.19026H9.19101H9.19175H9.1925H9.19325H9.19399H9.19474H9.19548H9.19623H9.19697H9.19771H9.19846H9.1992H9.19994H9.20068H9.20142H9.20216H9.2029H9.20364H9.20438H9.20512H9.20586H9.20659H9.20733H9.20807H9.2088H9.20954H9.21027H9.21101H9.21174H9.21248H9.21321H9.21394H9.21468H9.21541H9.21614H9.21687H9.2176H9.21833H9.21906H9.21979H9.22052H9.22125H9.22198H9.22271H9.22343H9.22416H9.22489H9.22561H9.22634H9.22706H9.22779H9.22851H9.22924H9.22996H9.23068H9.23141H9.23213H9.23285H9.23357H9.23429H9.23501H9.23573H9.23645H9.23717H9.23789H9.23861H9.23933H9.24005H9.24077H9.24148H9.2422H9.24292H9.24363H9.24435H9.24506H9.24578H9.24649H9.2472H9.24792H9.24863H9.24934H9.25006H9.25077H9.25148H9.25219H9.2529H9.25361H9.25432H9.25503H9.25574H9.25645H9.25716H9.25787H9.25857H9.25928H9.25999H9.2607H9.2614H9.26211H9.26281H9.26352H9.26423H9.26493H9.26563H9.26576C9.23905 9.47344 9.21198 9.45712 9.18456 9.44006H9.09343C9.11944 9.45702 9.14517 9.47334 9.17062 9.48904ZM6.99098 5.32976L6.9914 5.32993L6.99302 5.32345C7.00569 5.27275 7.02379 5.2387 7.04164 5.2183C7.05926 5.19816 7.07463 5.19318 7.08498 5.19318H7.11288C7.13231 5.19318 7.14578 5.19798 7.15374 5.20196C7.1578 5.20399 7.16054 5.20587 7.16194 5.20692L7.16269 5.20751C7.17356 5.21895 7.18967 5.2478 7.20131 5.30481C7.21291 5.3616 7.21899 5.441 7.21389 5.54632C7.20424 5.74581 7.15472 6.03401 7.03165 6.42925C6.97587 6.22333 6.94262 6.02921 6.93162 5.85591C6.91792 5.64017 6.9389 5.45995 6.99098 5.32976ZM7.90655 9.13138C7.41142 9.23502 6.89968 9.3796 6.44735 9.52698C6.66817 9.009 6.88655 8.4755 7.06455 8.02137C7.28296 8.40961 7.57088 8.79409 7.90655 9.13138Z" fill="#231F20" stroke="black" stroke-width="0.0979514"/>
</g>
<defs>
<clipPath id="clip0_2425_1761">
<rect width="14.8083" height="17.77" fill="white" transform="translate(0.595825 0.767044)"/>
</clipPath>
</defs>
</svg>
