<svg width="19" height="18" viewBox="0 0 19 18" fill="none" xmlns="http://www.w3.org/2000/svg">
<path fill-rule="evenodd" clip-rule="evenodd" d="M16.8125 9C16.8125 9.31066 16.5607 9.5625 16.25 9.5625H10.131V15.75C10.131 16.0607 9.87912 16.3125 9.56845 16.3125C9.2578 16.3125 9.00595 16.0607 9.00595 15.75V9.5625H2.75C2.43934 9.5625 2.1875 9.31066 2.1875 9C2.1875 8.68934 2.43934 8.4375 2.75 8.4375H9.00595V2.25C9.00595 1.93934 9.2578 1.6875 9.56845 1.6875C9.87912 1.6875 10.131 1.93934 10.131 2.25V8.4375H16.25C16.5607 8.4375 16.8125 8.68934 16.8125 9Z" fill="#373231"/>
</svg>
