<svg width="27" height="19" viewBox="0 0 27 19" fill="none" xmlns="http://www.w3.org/2000/svg">
<path d="M13.5 17.1062C13.4131 17.1062 13.3262 17.0861 13.247 17.0458C10.5985 15.6967 7.70402 15.0705 4.65804 15.1848C4.27676 15.1984 3.91328 15.0652 3.63775 14.8079C3.36222 14.5506 3.21051 14.2045 3.21051 13.8334V2.37224C3.21051 1.64197 3.80116 1.0464 4.55495 1.0165C7.72554 0.892485 10.7338 1.5146 13.5 2.87099C16.2662 1.5146 19.2734 0.892227 22.445 1.0165C23.1988 1.0464 23.7895 1.64197 23.7895 2.37224V13.8334C23.7895 14.2045 23.6377 14.5506 23.3622 14.8079C23.0867 15.0651 22.7227 15.1984 22.3422 15.1848C19.2888 15.0714 16.4009 15.6969 13.7529 17.0458C13.6738 17.0861 13.5869 17.1062 13.5 17.1062ZM5.36294 14.1155C8.23595 14.1155 10.9687 14.7429 13.5 15.9843C16.25 14.6357 19.2394 14.0114 22.3839 14.1296C22.4976 14.1353 22.5726 14.0797 22.6076 14.047C22.6424 14.0143 22.7012 13.9432 22.7012 13.8334V2.37224C22.7012 2.21046 22.5691 2.07833 22.4004 2.07175C19.2872 1.94877 16.4543 2.55671 13.7529 3.93243C13.5946 4.01313 13.4054 4.01313 13.247 3.93243C10.5457 2.55658 7.71783 1.948 4.59959 2.07175C4.43087 2.07833 4.29881 2.21046 4.29881 2.37224V13.8334C4.29881 13.9432 4.35753 14.0143 4.39234 14.047C4.42741 14.0797 4.50207 14.1354 4.61632 14.1296C4.86608 14.1203 5.11531 14.1155 5.36294 14.1155Z" fill="white" stroke="white" stroke-width="0.5"/>
<path d="M25.0574 18.0011H1.94261C1.16167 18.0011 0.526306 17.3899 0.526306 16.6387V5.04785C0.526306 4.2965 1.16167 3.6853 1.94261 3.6853H3.61284C3.91772 3.6853 4.16491 3.92309 4.16491 4.21637C4.16491 4.50965 3.91772 4.74744 3.61284 4.74744H1.94261C1.77035 4.74744 1.63045 4.88215 1.63045 5.04785V16.6387C1.63045 16.8042 1.77035 16.939 1.94261 16.939H25.0574C25.2296 16.939 25.3695 16.8042 25.3695 16.6387V5.04785C25.3695 4.88215 25.2296 4.74744 25.0574 4.74744H23.3871C23.0823 4.74744 22.8351 4.50965 22.8351 4.21637C22.8351 3.92309 23.0823 3.6853 23.3871 3.6853H25.0574C25.8383 3.6853 26.4737 4.2965 26.4737 5.04785V16.6387C26.4737 17.3899 25.8383 18.0011 25.0574 18.0011Z" fill="white" stroke="white" stroke-width="0.5"/>
<path d="M13.5 17.1063C13.2529 17.1063 13.0526 16.8631 13.0526 16.5632V3.33362C13.0526 3.0337 13.2529 2.79053 13.5 2.79053C13.747 2.79053 13.9473 3.0337 13.9473 3.33362V16.5632C13.9473 16.8631 13.747 17.1063 13.5 17.1063Z" fill="white" stroke="white" stroke-width="0.5"/>
</svg>
